<svg width="25" height="17" viewBox="0 0 25 17" fill="none" xmlns="http://www.w3.org/2000/svg">
<path d="M8.44135 5.74561C7.70318 5.74561 7.10254 6.23015 7.10254 6.82565C7.10254 7.42115 7.70318 7.90569 8.44135 7.90569C9.17952 7.90569 9.78016 7.42115 9.78016 6.82565C9.78035 6.23031 9.17972 5.74561 8.44135 5.74561ZM8.44135 7.51546C7.96981 7.51546 7.58646 7.20604 7.58646 6.82581C7.58646 6.44572 7.97001 6.13615 8.44135 6.13615C8.91251 6.13615 9.29643 6.44557 9.29643 6.82581C9.29643 7.20604 8.91288 7.51546 8.44135 7.51546Z" fill="#1D1D1B"/>
<path d="M16.0898 5.74561C15.3516 5.74561 14.751 6.23015 14.751 6.82565C14.751 7.42115 15.3516 7.90569 16.0898 7.90569C16.828 7.90569 17.4286 7.42115 17.4286 6.82565C17.4286 6.23031 16.828 5.74561 16.0898 5.74561ZM16.0898 7.51546C15.6183 7.51546 15.2347 7.20604 15.2347 6.82581C15.2347 6.44572 15.6183 6.13615 16.0898 6.13615C16.5613 6.13615 16.9449 6.44557 16.9449 6.82581C16.9449 7.20604 16.5611 7.51546 16.0898 7.51546Z" fill="#1D1D1B"/>
<path d="M13.8547 10.53H10.6763C10.2794 10.53 9.91891 10.7064 9.7355 10.9906C9.55229 11.275 9.57991 11.6144 9.80806 11.8769L11.3973 13.705C11.5956 13.9331 11.9201 14.0693 12.2656 14.0693C12.611 14.0693 12.9355 13.9331 13.1338 13.705L14.7231 11.8769C14.951 11.6147 14.9788 11.2751 14.796 10.9909C14.6124 10.7064 14.2521 10.53 13.8548 10.53H13.8547ZM14.3267 11.6526L12.7374 13.4807C12.6279 13.6067 12.4559 13.6787 12.2653 13.6787C12.0747 13.6787 11.9025 13.6067 11.7932 13.4807L10.2041 11.6526C10.0783 11.5079 10.0636 11.3277 10.1645 11.171C10.2655 11.0141 10.4569 10.9206 10.6758 10.9206H13.8541C14.0733 10.9206 14.2645 11.0141 14.3658 11.171C14.4673 11.3277 14.4525 11.5076 14.3266 11.6526H14.3267Z" fill="#1D1D1B"/>
<path d="M23.4745 2.17749L23.4298 2.12449C22.3 0.793712 20.4326 -0.000244141 18.4335 -0.000244141H18.4271L16.73 0.00129219C16.727 0.00129219 16.7243 -0.000244141 16.7211 -0.000244141H7.81093C7.78827 -0.000244141 7.76618 0.000831312 7.74351 0.00113856L6.14397 -0.000244141H6.1375C4.13823 -0.000244141 2.27079 0.794027 1.14176 2.12449L1.09662 2.17749C-0.0652607 3.54653 -0.32141 5.28473 0.412179 6.8267L1.26594 8.62177C1.80681 9.75896 1.99646 10.9991 1.81422 12.2085C1.80241 12.2882 1.85193 12.3658 1.93953 12.4039C1.97553 12.4197 2.01514 12.4273 2.05475 12.4273C2.11074 12.4273 2.16635 12.4116 2.21091 12.3812C3.28026 11.6527 4.00162 10.8869 4.48725 10.0587L5.49336 12.6517C6.3816 14.9405 8.97541 16.4783 11.9483 16.4783H12.7504C15.7232 16.4783 18.3902 14.8725 19.2356 12.5731L20.1308 10.1375C20.6161 10.9359 21.326 11.6757 22.3617 12.3815C22.4064 12.4119 22.4618 12.4276 22.5178 12.4276C22.5574 12.4276 22.5967 12.4199 22.633 12.4042C22.7205 12.3661 22.7702 12.2885 22.7584 12.2088C22.5759 10.9999 22.7654 9.75959 23.3062 8.62208L24.16 6.82702C24.8924 5.28437 24.6367 3.54618 23.4748 2.17741L23.4745 2.17749ZM2.34879 11.7579C2.42744 10.6456 2.21205 9.52286 1.71709 8.48199L0.863329 6.68692C0.187074 5.26475 0.423219 3.66142 1.49502 2.39798L1.54016 2.34512C2.57958 1.1205 4.29739 0.389985 6.13704 0.389985H6.14333L7.46517 0.391061C6.56972 1.06121 4.91953 2.72058 4.91953 5.84457C4.91934 8.67343 4.21339 10.3333 2.34877 11.7579L2.34879 11.7579ZM18.7703 12.462C17.9857 14.5969 15.5098 16.0878 12.7493 16.0878H11.9472C9.1873 16.0878 6.77884 14.6599 5.95394 12.535L4.77645 9.49997C5.26303 8.41348 5.40356 7.21469 5.40356 5.84459C5.40356 2.1666 7.84922 0.609754 8.23013 0.390292H16.3407C16.7204 0.607681 19.1673 2.15291 19.1673 5.84459C19.1673 7.24757 19.316 8.47019 19.8313 9.57694L18.7703 12.462ZM23.7066 6.68677L22.8528 8.48183C22.3579 9.52318 22.1425 10.646 22.2211 11.7578C20.3567 10.3334 19.6507 8.67357 19.6507 5.84447C19.6507 2.72064 18.0005 1.06154 17.1051 0.390961L18.4269 0.389885H18.433C20.2723 0.389885 21.9907 1.12072 23.0299 2.34455L23.0746 2.39756C24.1468 3.66088 24.383 5.26421 23.7065 6.6865L23.7066 6.68677Z" fill="#1D1D1B"/>
</svg>
