<svg width="44" height="23" viewBox="0 0 44 23" fill="none" xmlns="http://www.w3.org/2000/svg">
<path d="M43.2368 22.02C43.4672 21.7961 43.5976 21.4915 43.5994 21.1731C43.6024 20.854 43.4714 20.5474 43.2368 20.3262L22.8769 0.354105C22.649 0.127522 22.3382 -9.62573e-05 22.0136 -9.62573e-05C21.689 -9.62573e-05 21.3782 0.127522 21.1502 0.354105L0.786539 20.3262C0.544726 20.548 0.404998 20.8567 0.399578 21.1814C0.394158 21.5064 0.523048 21.8192 0.757329 22.0491C0.991317 22.2786 1.31052 22.4053 1.64149 22.3997C1.97244 22.3944 2.28713 22.2573 2.51332 22.0201L22.0136 2.89508L41.5093 22.0201C41.7378 22.2458 42.0486 22.3726 42.3729 22.3726C42.6969 22.3726 43.0077 22.2458 43.2363 22.0201L43.2368 22.02Z" fill="#9A4837"/>
</svg>
