<svg width="33" height="36" viewBox="0 0 33 36" fill="none" xmlns="http://www.w3.org/2000/svg">
<path d="M31.5368 19.1156H4.17663V3.94294C4.17663 2.65475 5.21009 1.60554 6.49068 1.57496C6.48194 1.64431 6.47262 1.71366 6.47436 1.78504C6.48223 2.15508 6.63171 2.50473 6.89598 2.76845L7.15618 3.02865C6.39512 4.30775 6.5 5.91676 7.51748 6.93479L7.66492 7.08222L7.0743 7.67284L7.96038 8.55891L8.55099 7.96771L8.55128 7.96801L14.4586 2.06073L14.4583 2.06044L15.0489 1.46982L14.1628 0.583752L13.5722 1.17437L13.425 1.02722C12.8694 0.471573 12.1119 0.165316 11.2922 0.165316C10.6753 0.165316 10.062 0.344798 9.52033 0.666481L9.25897 0.40512C8.74907 -0.105661 7.88984 -0.132752 7.35517 0.318288H6.54809C4.54986 0.318288 2.92369 1.94416 2.92369 3.94239V19.115H1.46155C0.655287 19.115 0 19.7709 0 20.5772C0 21.3835 0.655302 22.0393 1.46155 22.0393H2.92391V24.0414C2.92391 27.7465 5.09147 30.9498 8.21551 32.4352C8.00368 33.2572 7.26357 33.8446 6.40607 33.8446C6.23445 33.8446 6.06312 33.8207 5.89675 33.774L5.55672 34.98C5.83352 35.0587 6.11936 35.0978 6.40609 35.0978C7.78454 35.0978 8.98882 34.191 9.39124 32.899C10.2564 33.1709 11.1762 33.318 12.1299 33.318H20.8698C21.7978 33.318 22.694 33.1776 23.5399 32.9185C23.9484 34.1997 25.1468 35.0977 26.5183 35.0977C26.8054 35.0977 27.0906 35.0581 27.3677 34.98L27.0277 33.774C26.8619 33.8209 26.6903 33.8445 26.5184 33.8445C25.6716 33.8445 24.9397 33.2714 24.7171 32.4658C27.8768 30.9949 30.0755 27.7732 30.0755 24.0422V22.0401H31.5379C32.3441 22.0401 33 21.3842 33 20.578C32.9994 19.7717 32.3432 19.1161 31.5373 19.1161L31.5368 19.1156ZM12.5383 1.91331L12.6855 2.06045L8.55058 6.19536L8.40314 6.0488C7.67005 5.31571 7.75892 4.03424 8.60127 3.19217L9.68195 2.11119C10.1219 1.67122 10.7088 1.41947 11.2918 1.41947C11.7769 1.41947 12.2196 1.59518 12.5383 1.91335L12.5383 1.91331ZM7.75956 1.67118L8.16049 1.26937C8.18671 1.24315 8.22138 1.23732 8.24556 1.23732C8.27237 1.23732 8.32424 1.2449 8.37202 1.2921L8.55034 1.47042L7.96001 2.06104L7.78111 1.88272C7.73508 1.83668 7.72721 1.78569 7.72634 1.75947C7.72634 1.7347 7.73129 1.69886 7.75955 1.67118L7.75956 1.67118ZM28.8212 24.0419C28.8212 28.4659 25.254 32.065 20.869 32.065H12.1291C7.74397 32.065 4.17693 28.4659 4.17693 24.0419V22.0399H28.8212V24.0419ZM31.5368 20.7867H1.4615C1.34816 20.7867 1.25316 20.6911 1.25316 20.5778C1.25316 20.4644 1.34873 20.3688 1.4615 20.3688H31.5375C31.6509 20.3688 31.7465 20.4644 31.7465 20.5778C31.7462 20.6911 31.6506 20.7867 31.5372 20.7867H31.5368Z" fill="black"/>
<path d="M19.4785 14.1703L20.3646 13.2842L21.5464 14.466L20.6603 15.3521L19.4785 14.1703Z" fill="black"/>
<path d="M13.2758 7.96798L11.5039 6.19613L12.39 5.31006L14.1618 7.08191L13.2758 7.96798Z" fill="black"/>
<path d="M15.9346 10.626L14.1621 8.8536L15.0482 7.96753L16.8206 9.73997L15.9346 10.626Z" fill="black"/>
<path d="M19.4792 12.3986L18.5931 13.2846L16.8213 11.5128L17.7074 10.6267L19.4792 12.3986Z" fill="black"/>
<path d="M15.6396 13.2849L13.8672 11.5131L14.7533 10.6267L16.5257 12.3986L15.6396 13.2849Z" fill="black"/>
<path d="M16.5244 14.171L17.4105 13.2849L19.1826 15.0571L18.2966 15.9431L16.5244 14.171Z" fill="black"/>
<path d="M13.8669 9.74011L12.9808 10.6262L11.209 8.85433L12.0951 7.96826L13.8669 9.74011Z" fill="black"/>
<path d="M20.0697 15.9434L21.2515 17.1252L20.3654 18.0113L19.1836 16.8294L20.0697 15.9434Z" fill="black"/>
<path d="M15.639 7.37691L13.8672 5.60507L14.7533 4.71899L16.5251 6.49084L15.639 7.37691Z" fill="black"/>
<path d="M19.1826 10.9217L20.0687 10.0356L21.8408 11.8078L20.9548 12.6939L19.1826 10.9217Z" fill="black"/>
<path d="M22.7279 12.6931L23.9097 13.8749L23.0236 14.761L21.8418 13.5792L22.7279 12.6931Z" fill="black"/>
<path d="M16.5254 8.26327L17.4115 7.3772L19.1836 9.14934L18.2975 10.0354L16.5254 8.26327Z" fill="black"/>
<path d="M17.1159 4.12878L16.2299 5.01485L14.458 3.24301L15.3441 2.35693L17.1159 4.12878Z" fill="black"/>
<path d="M19.7747 6.78612L18.8887 7.67219L17.1162 5.89974L18.0023 5.01367L19.7747 6.78612Z" fill="black"/>
<path d="M24.5005 11.5122L23.6144 12.3982L22.4326 11.2164L23.3187 10.3303L24.5005 11.5122Z" fill="black"/>
<path d="M22.4333 9.4447L21.5472 10.3308L19.7754 8.55892L20.6615 7.67285L22.4333 9.4447Z" fill="black"/>
<path d="M17.4105 16.238L18.5923 17.4199L17.7062 18.3059L16.5244 17.1241L17.4105 16.238Z" fill="black"/>
<path d="M12.0951 10.9207L13.8675 12.6931L12.9814 13.5792L11.209 11.8067L12.0951 10.9207Z" fill="black"/>
<path d="M10.3226 10.9218L8.55078 9.14999L9.43685 8.26392L11.2087 10.0358L10.3226 10.9218Z" fill="black"/>
<path d="M14.7533 13.5806L16.5251 15.3524L15.639 16.2385L13.8672 14.4666L14.7533 13.5806Z" fill="black"/>
</svg>
