<svg width="32" height="24" viewBox="0 0 32 24" fill="none" xmlns="http://www.w3.org/2000/svg">
<path d="M32 14.4572C32 13.3182 31.3635 12.2984 30.3659 11.6169V7.10219C30.3659 4.89922 28.3795 3.10722 25.9375 3.10722H23.4916C23.0365 3.10722 22.6223 2.8891 22.4383 2.55477C20.6225 -0.850683 11.4091 -0.851902 9.58184 2.55104C9.39536 2.8891 8.98109 3.1072 8.526 3.1072H6.08603C3.64397 3.1072 1.6576 4.89941 1.6576 7.10217V11.6001C0.646167 12.2816 0.000502581 13.3092 0.000502581 14.4574C-0.00102802 16.3482 0.00152296 21.0054 0.000502581 22.9452C0.000502581 23.5268 0.651509 23.9998 1.45124 23.9998H3.47594C4.27592 23.9998 4.92642 23.5266 4.92642 22.9452V21.3893C4.92642 21.1747 5.26237 20.9866 5.64503 20.9866H26.355C26.7379 20.9866 27.0736 21.1747 27.0736 21.3893V22.9452C27.0736 23.5268 27.7244 23.9998 28.5241 23.9998H30.5488C31.3488 23.9998 31.9995 23.5266 31.9995 22.9452C31.9998 20.9827 31.9993 16.3648 31.9995 14.4574L32 14.4572ZM6.08655 4.03496H8.52652C9.43157 4.03496 10.2553 3.6014 10.6267 2.92735C12.1183 0.271988 19.9078 0.266367 21.3934 2.92983C21.7631 3.60117 22.587 4.03495 23.4921 4.03495H25.938C27.7497 4.03495 29.2236 5.41078 29.2236 7.10192V11.0439C28.3412 10.684 26.9754 10.7414 25.9905 10.7452V8.17947C25.9905 7.4027 25.2155 6.77071 24.2625 6.77071H19.7942C18.8414 6.77071 18.0662 7.40249 18.0662 8.17947V10.7452H13.9523V8.17947C13.9523 7.4027 13.1773 6.77071 12.2243 6.77071H7.75599C6.8032 6.77071 6.02797 7.40249 6.02797 8.17947V10.7452C5.05578 10.7402 3.68158 10.6826 2.80128 11.0356V7.10212C2.80128 5.41098 4.2752 4.03515 6.08688 4.03515L6.08655 4.03496ZM24.8472 8.17946V10.7452H19.2086V8.17946C19.2086 7.91432 19.4711 7.69869 19.7937 7.69869H24.262C24.5844 7.69869 24.8472 7.91432 24.8472 8.17946ZM12.809 8.17946V10.7452H7.17034V8.17946C7.17034 7.91432 7.43283 7.69869 7.75553 7.69869H12.2238C12.5462 7.69869 12.809 7.91432 12.809 8.17946ZM30.8572 22.9448C30.8572 22.9814 30.7493 23.0713 30.5493 23.0713H28.5246C28.3248 23.0713 28.2169 22.9814 28.2169 22.9448V21.3889C28.2169 20.6552 27.3818 20.0582 26.3555 20.0582L5.64616 20.0584C4.61964 20.0584 3.78472 20.6554 3.78472 21.3891V22.945C3.78472 22.9816 3.67682 23.0715 3.47708 23.0715H1.45238C1.25238 23.0715 1.14448 22.9816 1.14448 22.945V17.9735L30.8573 17.9733L30.8572 22.9448ZM30.8572 17.0427H1.14366V14.4573C1.14366 12.9222 2.68164 11.6733 4.57214 11.6733H27.4287C29.3192 11.6733 30.8572 12.9222 30.8572 14.4573V17.0427Z" fill="#1D1D1B"/>
</svg>
