<svg width="25" height="25" viewBox="0 0 25 25" fill="none" xmlns="http://www.w3.org/2000/svg">
<path d="M2.46191 2.56724C2.46191 2.68127 2.52449 2.78657 2.62434 2.8413L3.20169 3.157C3.72495 3.44326 4.15315 3.87125 4.43943 4.39474L4.75512 4.97208C4.81007 5.07237 4.91515 5.13494 5.02918 5.13494C5.14365 5.13494 5.24851 5.07281 5.30324 4.97208L5.61894 4.39474C5.9052 3.87126 6.33342 3.44327 6.85668 3.157L7.43402 2.8413C7.53409 2.78658 7.59645 2.68127 7.59645 2.56724C7.59645 2.45321 7.53388 2.34791 7.43402 2.29318L6.85668 1.97749C6.33342 1.69122 5.90521 1.26323 5.61894 0.739747L5.30324 0.162404C5.24852 0.0618939 5.14365 -0.000244141 5.02918 -0.000244141C4.91515 -0.000244141 4.80985 0.0618939 4.75512 0.162622L4.43943 0.739965C4.15316 1.26344 3.72495 1.69143 3.20169 1.9777L2.62434 2.2934C2.52405 2.34769 2.46191 2.453 2.46191 2.56724V2.56724ZM3.50146 2.5256C4.12981 2.18199 4.64392 1.66835 4.98773 1.03932L5.02938 0.963664L5.07058 1.03932C5.41441 1.66812 5.9285 2.18201 6.55686 2.5256L6.63252 2.56724L6.55686 2.60888C5.9285 2.95249 5.4144 3.46614 5.07058 4.09516L5.02938 4.17082L4.98773 4.09516C4.64391 3.46636 4.12981 2.95248 3.50146 2.60888L3.4258 2.56724L3.50146 2.5256Z" fill="black"/>
<path d="M24.8253 2.87442L24.0988 2.47725C23.4264 2.10951 22.877 1.55978 22.5094 0.888115L22.1122 0.162213C22.002 -0.0387716 21.6737 -0.0387716 21.5636 0.162213L21.1664 0.888115C20.7988 1.55972 20.2493 2.1095 19.5769 2.47725L18.8509 2.87442C18.7506 2.92914 18.6885 3.03443 18.6885 3.14843C18.6885 3.26244 18.751 3.36773 18.8513 3.42244L19.5774 3.81961C20.2493 4.18735 20.7992 4.73693 21.1668 5.40875L21.564 6.1351C21.6188 6.23538 21.7241 6.29794 21.8381 6.29794C21.9521 6.29794 22.0574 6.23581 22.1122 6.1351L22.5094 5.40875C22.877 4.73693 23.4269 4.18736 24.0984 3.81961L24.8249 3.42244C24.9251 3.36773 24.9877 3.26244 24.9877 3.14843C24.9877 3.03443 24.9256 2.92914 24.8253 2.87442H24.8253ZM23.7988 3.27159C23.0218 3.69623 22.386 4.33188 21.9609 5.10923L21.8377 5.33419L21.7145 5.10923C21.2893 4.3321 20.6536 3.69649 19.8765 3.27159L19.6517 3.14843L19.8767 3.02506C20.654 2.59998 21.2895 1.96433 21.7147 1.18742L21.8379 0.962681L21.9611 1.18742C22.3862 1.96433 23.0215 2.59994 23.799 3.02506L24.024 3.14843L23.7988 3.27159Z" fill="black"/>
<path d="M20.3057 18.4086C20.3057 19.3372 21.0596 20.0927 21.9862 20.0927C22.913 20.0927 23.6671 19.3372 23.6671 18.4086C23.6671 17.4801 22.913 16.7246 21.9862 16.7246C21.0595 16.7246 20.3057 17.4803 20.3057 18.4086ZM23.0425 18.4086C23.0425 18.9925 22.569 19.4676 21.9866 19.4676C21.4047 19.4676 20.9312 18.9925 20.9312 18.4086C20.9312 17.8248 21.4047 17.3497 21.9866 17.3497C22.5688 17.3501 23.0425 17.8247 23.0425 18.4086Z" fill="black"/>
<path d="M14.9572 1.68378C14.9572 0.755202 14.203 -0.000244141 13.2762 -0.000244141C12.3494 -0.000244141 11.5957 0.755202 11.5957 1.68378C11.5957 2.61237 12.3496 3.36781 13.2762 3.36781C14.2028 3.36781 14.9572 2.61214 14.9572 1.68378ZM13.2762 2.74253C12.6943 2.74253 12.2208 2.26745 12.2208 1.68356C12.2205 1.09969 12.6941 0.62482 13.2762 0.62482C13.8586 0.62482 14.3321 1.09989 14.3321 1.68378C14.3319 2.26766 13.8583 2.74253 13.2762 2.74253Z" fill="black"/>
<path d="M20.618 13.1351C21.5448 13.1351 22.2985 12.3797 22.2985 11.4511C22.2985 10.5225 21.5446 9.76709 20.618 9.76709C19.6912 9.76709 18.9375 10.5225 18.9375 11.4511C18.9373 12.3797 19.6912 13.1351 20.618 13.1351ZM20.618 10.3924C21.1999 10.3924 21.6735 10.8675 21.6735 11.4513C21.6735 12.0352 21.1999 12.5103 20.618 12.5103C20.0361 12.5103 19.5626 12.0352 19.5626 11.4513C19.5626 10.8675 20.0361 10.3924 20.618 10.3924Z" fill="black"/>
<path d="M0.0919982 24.9085C0.151519 24.968 0.231534 24.9998 0.312637 24.9998C0.353626 24.9998 0.395053 24.992 0.434514 24.9752L19.0971 17.0862C19.1928 17.0458 19.2622 16.9606 19.2822 16.8584C19.3023 16.7561 19.27 16.6513 19.197 16.5778L8.40642 5.76463C8.33294 5.69052 8.22764 5.65803 8.12516 5.67874C8.02291 5.69836 7.93722 5.76812 7.89689 5.86446L0.0242897 24.5661C-0.024766 24.6834 0.00183333 24.8188 0.0918752 24.9086L0.0919982 24.9085ZM8.29279 6.53551L18.427 16.6908L0.899072 24.0999L8.29279 6.53551Z" fill="black"/>
<path d="M14.6444 8.75772C14.7407 8.75772 14.8354 8.71325 14.8966 8.62998C14.9954 8.49504 17.3058 5.27279 16.67 0.27329C16.6482 0.101955 16.4906 -0.016412 16.3205 0.00276793C16.1491 0.0243486 16.0279 0.180862 16.0499 0.352198C16.6528 5.09405 14.415 8.23065 14.3921 8.26134C14.2905 8.40063 14.3208 8.59594 14.4603 8.69753C14.5159 8.73829 14.5802 8.75769 14.6443 8.75769L14.6444 8.75772Z" fill="black"/>
<path d="M24.7938 8.75898C20.0991 6.88552 16.4256 9.75208 16.271 9.87482C16.136 9.98231 16.114 10.1792 16.2215 10.3139C16.2834 10.3911 16.3743 10.4314 16.4659 10.4314C16.5343 10.4314 16.603 10.4092 16.6606 10.363C16.6952 10.3351 20.2009 7.59844 24.5616 9.33934C24.7225 9.40366 24.9039 9.32495 24.9676 9.16492C25.0321 9.00468 24.9541 8.82306 24.7936 8.75896L24.7938 8.75898Z" fill="black"/>
<path d="M10.3653 6.408C10.3888 6.41367 10.4122 6.41606 10.4357 6.41606C10.5779 6.41606 10.7063 6.31861 10.7398 6.17384C10.7695 6.04434 11.4471 2.97959 9.35386 1.12594C9.22436 1.01213 9.02682 1.02413 8.91258 1.15276C8.79812 1.28226 8.81011 1.4798 8.93918 1.59404C10.7514 3.1987 10.137 6.00554 10.1303 6.03367C10.0921 6.20199 10.1972 6.36943 10.3653 6.40802L10.3653 6.408Z" fill="black"/>
<path d="M24.4329 16.0324C24.4939 16.1181 24.5901 16.1641 24.6879 16.1641C24.7505 16.1641 24.8135 16.1453 24.8687 16.1063C25.0093 16.0066 25.0425 15.8113 24.9424 15.6702C23.1999 13.2155 19.4695 14.3274 19.3118 14.3754C19.1468 14.426 19.0539 14.601 19.1047 14.7661C19.1557 14.9309 19.331 15.0236 19.4954 14.973C19.5301 14.9627 22.9489 13.9417 24.433 16.0324L24.4329 16.0324Z" fill="black"/>
</svg>
