<svg width="32" height="31" viewBox="0 0 32 31" fill="none" xmlns="http://www.w3.org/2000/svg">
<path d="M8.83169 14.2423C9.75557 14.2423 10.6781 13.9277 11.4276 13.3028L13.5358 15.6235L11.2922 17.6831L10.9635 17.3544C10.8119 17.2028 10.567 17.2028 10.4156 17.3544L0.955438 26.8153C0.00540728 27.7659 0.00540728 29.3122 0.955438 30.2622C1.41574 30.7225 2.02849 30.976 2.67905 30.976C3.33045 30.976 3.94267 30.7225 4.40267 30.2622L13.8635 20.8014C14.0152 20.6497 14.0152 20.4049 13.8635 20.2535L13.5349 19.9248L15.4323 17.8579L17.3822 19.9818L17.1105 20.2535C16.9589 20.4051 16.9589 20.65 17.1105 20.8014L26.5714 30.2622C27.0468 30.7374 27.6707 30.9747 28.295 30.9747C28.9194 30.9747 29.5435 30.7371 30.0186 30.2622C30.4789 29.8019 30.7327 29.1897 30.7327 28.5386C30.7327 27.8878 30.4792 27.2753 30.0186 26.815L20.5578 17.3541C20.4061 17.2025 20.1613 17.2025 20.0099 17.3541L19.6245 17.7396L17.4084 15.7054L19.7478 13.1574C20.7886 13.8569 21.9947 14.2091 23.2023 14.2091C24.7892 14.2091 26.3758 13.605 27.584 12.397C29.8974 10.0842 32.6249 3.56792 30.1373 1.0804C27.6496 -1.4076 21.1339 1.32069 18.8207 3.63351C16.6936 5.76067 16.4416 9.06142 18.0601 11.469L15.3664 13.9419L13.0046 11.7509L13.0608 11.6947C14.6423 10.1133 14.6423 7.54009 13.0608 5.95839L7.21017 0.108819C7.06475 -0.0365985 6.80744 -0.0365985 6.66229 0.108819L0.113723 6.65766C-0.0379078 6.80929 -0.0379078 7.05418 0.113723 7.20554L5.96357 13.0554C6.75418 13.8463 7.79292 14.2417 8.83186 14.2417L8.83169 14.2423ZM3.85431 29.7147C3.53996 30.0285 3.12266 30.2015 2.67857 30.2015C2.23448 30.2015 1.8169 30.0288 1.50283 29.7147C0.854948 29.0666 0.854948 28.0114 1.50283 27.3635L10.6897 18.1767L13.0409 20.5279L3.85431 29.7147ZM20.283 18.1767L29.4698 27.3635C29.7842 27.6779 29.9569 28.0952 29.9569 28.5393C29.9569 28.9833 29.7842 29.4009 29.4698 29.715C28.8211 30.3631 27.7668 30.3629 27.1186 29.715L17.9318 20.5281L20.283 18.1767ZM19.0753 18.2886L17.9298 19.4341L15.9575 17.2858L16.8836 16.2771L19.0753 18.2886ZM19.3678 4.18271C21.4712 2.07936 27.5292 -0.42919 29.5884 1.6296C31.6472 3.68867 29.1381 9.74672 27.035 11.8502C24.9887 13.8965 21.7033 13.9558 19.578 12.0397L19.1785 11.6402C17.2627 9.51436 17.3216 6.22877 19.368 4.1825L19.3678 4.18271ZM18.8199 12.3974C18.887 12.4644 18.9591 12.5225 19.0283 12.5858L19.1283 12.6858L16.5789 15.4625C16.5773 15.4641 16.5754 15.4644 16.5738 15.466C16.5722 15.4676 16.5719 15.4698 16.5708 15.4714L12.986 19.3768L11.841 18.2318L18.5317 12.089L18.6306 12.1879C18.6939 12.2577 18.7525 12.3301 18.8198 12.3974L18.8199 12.3974ZM14.7932 14.4689L14.1067 15.0992L11.9884 12.7677L12.4558 12.3004L14.7932 14.4689ZM6.93624 0.931851L12.5126 6.5079C13.7921 7.78743 13.7921 9.86892 12.5126 11.1484L11.1522 12.5088C9.87241 13.7875 7.79037 13.7878 6.51139 12.5088L0.935344 6.93275L6.93624 0.931851Z" fill="black"/>
<path d="M10.3048 8.32192C10.3804 8.39761 10.4796 8.43544 10.5788 8.43544C10.678 8.43544 10.7772 8.3976 10.8529 8.32192C11.0045 8.17029 11.0045 7.92541 10.8529 7.77405L6.79344 3.71431C6.6418 3.56268 6.39692 3.56268 6.24556 3.71431C6.09393 3.86594 6.09393 4.11082 6.24556 4.26219L10.3048 8.32192Z" fill="black"/>
<path d="M8.88581 9.74136C8.96149 9.81704 9.06068 9.85488 9.15988 9.85488C9.25908 9.85488 9.35827 9.81704 9.43395 9.74136C9.58558 9.58973 9.58558 9.34484 9.43395 9.19348L5.37449 5.13374C5.22286 4.98211 4.97798 4.98211 4.82661 5.13374C4.67498 5.28537 4.67498 5.53026 4.82661 5.68162L8.88581 9.74136Z" fill="black"/>
<path d="M7.74093 11.2733C7.84013 11.2733 7.93933 11.2355 8.015 11.1598C8.16664 11.0082 8.16664 10.7633 8.015 10.6119L3.95554 6.5522C3.80391 6.40057 3.55903 6.40057 3.40767 6.5522C3.25604 6.70383 3.25604 6.94872 3.40767 7.10008L7.46741 11.1598C7.54281 11.2352 7.64174 11.2733 7.74093 11.2733Z" fill="black"/>
</svg>
