<svg width="131" height="54" viewBox="0 0 131 54" fill="none" xmlns="http://www.w3.org/2000/svg">
<path d="M6.31201 34.0463V9.47677H8.11448V32.4317H22.3575V34.0463H6.31201ZM25.0421 20.7788H38.4369V22.3582H25.0421V20.7788ZM25.2542 32.4317H40.5221V34.0463H23.4517V9.47677H39.992V11.0913H25.2542V32.4317ZM59.5639 34.2218C57.7261 34.2218 56.018 33.9177 54.4393 33.3092C52.8842 32.6774 51.5295 31.7999 50.3749 30.6768C49.2204 29.5536 48.325 28.2432 47.6888 26.7456C47.0527 25.2246 46.7346 23.5634 46.7346 21.7615C46.7346 19.9597 47.0527 18.31 47.6888 16.8125C48.325 15.2916 49.2204 13.9695 50.3749 12.8463C51.553 11.7231 52.9195 10.8573 54.4746 10.249C56.0297 9.61716 57.7261 9.30127 59.5639 9.30127C61.3075 9.30127 62.9333 9.58206 64.4412 10.1437C65.9727 10.7052 67.2804 11.5593 68.3642 12.7059L67.2332 13.8642C66.173 12.8346 64.995 12.0975 63.699 11.6529C62.4267 11.1849 61.072 10.9509 59.6346 10.9509C58.056 10.9509 56.5835 11.22 55.2168 11.7582C53.8738 12.2964 52.6958 13.0569 51.6825 14.0397C50.693 15.0225 49.9154 16.169 49.3499 17.4794C48.8081 18.7898 48.5371 20.2172 48.5371 21.7615C48.5371 23.3059 48.8081 24.7332 49.3499 26.0437C49.9154 27.3541 50.693 28.5006 51.6825 29.4834C52.6958 30.4662 53.8738 31.2266 55.2168 31.7648C56.5835 32.3031 58.056 32.5721 59.6346 32.5721C61.072 32.5721 62.4267 32.3498 63.699 31.9052C64.995 31.4372 66.173 30.6768 67.2332 29.6238L68.3642 30.7821C67.2804 31.9286 65.9727 32.7945 64.4412 33.3794C62.9333 33.941 61.3075 34.2218 59.5639 34.2218ZM70.8673 34.0463V9.47677H72.6698V32.4317H86.9128V34.0463H70.8673ZM98.0204 34.2218C96.1826 34.2218 94.4745 33.9177 92.8957 33.3092C91.3407 32.6774 89.9742 31.7999 88.796 30.6768C87.6416 29.5302 86.7462 28.2081 86.11 26.7105C85.4738 25.1895 85.1557 23.5398 85.1557 21.7615C85.1557 19.9832 85.4738 18.3451 86.11 16.8476C86.7462 15.3267 87.6416 14.0046 88.796 12.8814C89.9742 11.7348 91.3407 10.8573 92.8957 10.249C94.4745 9.61716 96.1826 9.30127 98.0204 9.30127C99.8582 9.30127 101.555 9.61716 103.11 10.249C104.688 10.8573 106.055 11.7231 107.209 12.8463C108.364 13.9695 109.259 15.2916 109.895 16.8125C110.555 18.31 110.885 19.9597 110.885 21.7615C110.885 23.5634 110.555 25.2246 109.895 26.7456C109.259 28.2432 108.364 29.5536 107.209 30.6768C106.055 31.7999 104.688 32.6774 103.11 33.3092C101.555 33.9177 99.8582 34.2218 98.0204 34.2218ZM98.0204 32.5721C99.5991 32.5721 101.06 32.3031 102.403 31.7648C103.746 31.2266 104.912 30.4662 105.902 29.4834C106.891 28.5006 107.657 27.3541 108.199 26.0437C108.765 24.7332 109.047 23.3059 109.047 21.7615C109.047 20.1938 108.765 18.7663 108.199 17.4794C107.657 16.169 106.891 15.0225 105.902 14.0397C104.912 13.0569 103.746 12.2964 102.403 11.7582C101.06 11.22 99.5991 10.9509 98.0204 10.9509C96.4418 10.9509 94.981 11.22 93.6379 11.7582C92.2949 12.2964 91.117 13.0569 90.1037 14.0397C89.1141 15.0225 88.3366 16.169 87.7711 17.4794C87.2293 18.7663 86.9582 20.1938 86.9582 21.7615C86.9582 23.3059 87.2293 24.7332 87.7711 26.0437C88.3366 27.3541 89.1141 28.5006 90.1037 29.4834C91.117 30.4662 92.2949 31.2266 93.6379 31.7648C94.981 32.3031 96.4418 32.5721 98.0204 32.5721ZM120.106 34.2218C118.268 34.2218 116.524 33.9177 114.875 33.3092C113.249 32.6774 111.989 31.8701 111.093 30.8874L111.906 29.5536C112.754 30.4193 113.909 31.1564 115.37 31.7648C116.854 32.3498 118.421 32.6423 120.07 32.6423C121.72 32.6423 123.063 32.4317 124.099 32.0105C125.16 31.566 125.937 30.9809 126.432 30.2556C126.95 29.5302 127.209 28.723 127.209 27.8337C127.209 26.7807 126.927 25.9384 126.361 25.3066C125.796 24.6748 125.053 24.1716 124.135 23.7973C123.216 23.423 122.214 23.1071 121.13 22.8496C120.047 22.5922 118.951 22.3231 117.844 22.0423C116.736 21.7382 115.723 21.3521 114.804 20.8841C113.885 20.416 113.143 19.7842 112.578 18.9887C112.036 18.1696 111.765 17.1167 111.765 15.8297C111.765 14.6598 112.071 13.5834 112.684 12.6006C113.296 11.6178 114.251 10.8222 115.546 10.2139C116.842 9.60546 118.503 9.30127 120.53 9.30127C121.896 9.30127 123.239 9.50016 124.559 9.89796C125.902 10.2958 127.045 10.8339 127.987 11.5125L127.315 12.9516C126.279 12.2496 125.16 11.7348 123.958 11.4072C122.78 11.0562 121.637 10.8807 120.53 10.8807C118.951 10.8807 117.643 11.103 116.607 11.5476C115.57 11.9922 114.804 12.5889 114.309 13.3377C113.815 14.0631 113.567 14.8821 113.567 15.7946C113.567 16.8476 113.838 17.69 114.38 18.3218C114.946 18.9536 115.688 19.4567 116.607 19.8311C117.526 20.2054 118.539 20.5213 119.646 20.7788C120.754 21.0362 121.849 21.317 122.933 21.6211C124.017 21.9019 125.018 22.2763 125.937 22.7443C126.856 23.2124 127.598 23.8442 128.164 24.6397C128.729 25.4352 129.012 26.4648 129.012 27.7284C129.012 28.8749 128.694 29.9514 128.058 30.9576C127.421 31.9403 126.444 32.7359 125.124 33.3443C123.828 33.9292 122.155 34.2218 120.106 34.2218Z" fill="white"/>
<path d="M6.479 48.9635V37.5386H7.18568L12.5268 46.6948H12.1488L17.4735 37.5386H18.1638L18.1802 48.9635H17.3585L17.342 38.7954H17.5721L12.5268 47.4456H12.116L7.0542 38.7954H7.30072V48.9635H6.479ZM30.2767 49.0451C29.4221 49.0451 28.6278 48.9036 27.8937 48.6207C27.1706 48.3269 26.5351 47.9189 25.9873 47.3966C25.4505 46.8635 25.0342 46.2487 24.7383 45.5523C24.4425 44.8451 24.2946 44.078 24.2946 43.2511C24.2946 42.4241 24.4425 41.6625 24.7383 40.9661C25.0342 40.2588 25.4505 39.6441 25.9873 39.1218C26.5351 38.5886 27.1706 38.1806 27.8937 37.8977C28.6278 37.6039 29.4221 37.457 30.2767 37.457C31.1313 37.457 31.9201 37.6039 32.6432 37.8977C33.3773 38.1806 34.0127 38.5832 34.5496 39.1055C35.0864 39.6278 35.5028 40.2425 35.7986 40.9498C36.1054 41.6461 36.2587 42.4132 36.2587 43.2511C36.2587 44.0889 36.1054 44.8614 35.7986 45.5687C35.5028 46.265 35.0864 46.8744 34.5496 47.3966C34.0127 47.9189 33.3773 48.3269 32.6432 48.6207C31.9201 48.9036 31.1313 49.0451 30.2767 49.0451ZM30.2767 48.278C31.0107 48.278 31.69 48.1529 32.3145 47.9026C32.939 47.6523 33.4814 47.2987 33.9415 46.8417C34.4017 46.3847 34.7577 45.8516 35.0097 45.2422C35.2727 44.6329 35.4042 43.9692 35.4042 43.2511C35.4042 42.522 35.2727 41.8583 35.0097 41.2599C34.7577 40.6505 34.4017 40.1174 33.9415 39.6604C33.4814 39.2034 32.939 38.8498 32.3145 38.5995C31.69 38.3493 31.0107 38.2241 30.2767 38.2241C29.5426 38.2241 28.8633 38.3493 28.2388 38.5995C27.6143 38.8498 27.0665 39.2034 26.5954 39.6604C26.1352 40.1174 25.7737 40.6505 25.5107 41.2599C25.2588 41.8583 25.1328 42.522 25.1328 43.2511C25.1328 43.9692 25.2588 44.6329 25.5107 45.2422C25.7737 45.8516 26.1352 46.3847 26.5954 46.8417C27.0665 47.2987 27.6143 47.6523 28.2388 47.9026C28.8633 48.1529 29.5426 48.278 30.2767 48.278ZM42.3705 48.9635V37.5386H43.0772L51.2779 47.9352H50.8999V37.5386H51.738V48.9635H51.0478L42.8307 38.5669H43.2087V48.9635H42.3705ZM61.1623 48.9635V38.2894H57.0209V37.5386H66.1419V38.2894H62.0004V48.9635H61.1623ZM68.9245 48.9635L74.2164 37.5386H75.0545L80.3464 48.9635H79.4425L74.4465 38.0609H74.808L69.8284 48.9635H68.9245ZM70.8638 45.7482L71.1432 45.0464H78.0291L78.3085 45.7482H70.8638ZM90.3928 49.0451C89.5273 49.0451 88.7275 48.9036 87.9934 48.6207C87.2593 48.3269 86.6184 47.9189 86.0706 47.3966C85.5337 46.8744 85.1174 46.265 84.8216 45.5687C84.5258 44.8614 84.3779 44.0889 84.3779 43.2511C84.3779 42.4132 84.5258 41.6461 84.8216 40.9498C85.1174 40.2425 85.5392 39.6278 86.087 39.1055C86.6348 38.5832 87.2703 38.1806 87.9934 37.8977C88.7275 37.6039 89.5327 37.457 90.4092 37.457C91.2419 37.457 92.0143 37.5876 92.7265 37.8487C93.4386 38.1099 94.0467 38.5016 94.5507 39.0239L94.0248 39.5788C93.5208 39.0891 92.9675 38.741 92.3649 38.5342C91.7733 38.3275 91.1269 38.2241 90.4257 38.2241C89.6806 38.2241 88.9904 38.3493 88.3549 38.5995C87.7195 38.8498 87.1662 39.2034 86.6951 39.6604C86.224 40.1174 85.8569 40.6505 85.594 41.2599C85.342 41.8692 85.216 42.5329 85.216 43.2511C85.216 43.9692 85.342 44.6329 85.594 45.2422C85.8569 45.8516 86.224 46.3847 86.6951 46.8417C87.1662 47.2987 87.7195 47.6523 88.3549 47.9026C88.9904 48.1529 89.6806 48.278 90.4257 48.278C91.1049 48.278 91.7459 48.1746 92.3485 47.9679C92.962 47.7611 93.5208 47.4184 94.0248 46.9396L94.5014 47.5762C93.9864 48.0658 93.3674 48.4358 92.6443 48.686C91.9321 48.9254 91.1816 49.0451 90.3928 49.0451ZM93.6961 47.4946V43.3H94.5014V47.5762L93.6961 47.4946ZM101.395 48.9635V37.5386H102.101L110.302 47.9352H109.924V37.5386H110.762V48.9635H110.072L101.855 38.5669H102.233V48.9635H101.395ZM120.696 48.9635V44.8179L120.893 45.3565L116.061 37.5386H116.982L121.37 44.6384H120.909L125.297 37.5386H126.168L121.337 45.3565L121.534 44.8179V48.9635H120.696Z" fill="white"/>
</svg>
