<svg width="28" height="27" viewBox="0 0 28 27" fill="none" xmlns="http://www.w3.org/2000/svg">
<path d="M11.4413 10.7456C10.7032 10.7456 10.1025 11.2302 10.1025 11.8256C10.1025 12.4211 10.7032 12.9057 11.4413 12.9057C12.1795 12.9057 12.7802 12.4211 12.7802 11.8256C12.7804 11.2303 12.1797 10.7456 11.4413 10.7456ZM11.4413 12.5155C10.9698 12.5155 10.5865 12.206 10.5865 11.8258C10.5865 11.4457 10.97 11.1362 11.4413 11.1362C11.9125 11.1362 12.2964 11.4456 12.2964 11.8258C12.2964 12.206 11.9129 12.5155 11.4413 12.5155Z" fill="#1D1D1B"/>
<path d="M19.0898 10.7456C18.3516 10.7456 17.751 11.2302 17.751 11.8256C17.751 12.4211 18.3516 12.9057 19.0898 12.9057C19.828 12.9057 20.4286 12.4211 20.4286 11.8256C20.4286 11.2303 19.828 10.7456 19.0898 10.7456ZM19.0898 12.5155C18.6183 12.5155 18.2347 12.206 18.2347 11.8258C18.2347 11.4457 18.6183 11.1362 19.0898 11.1362C19.5613 11.1362 19.9449 11.4456 19.9449 11.8258C19.9449 12.206 19.5611 12.5155 19.0898 12.5155Z" fill="#1D1D1B"/>
<path d="M16.8547 15.53H13.6763C13.2794 15.53 12.9189 15.7064 12.7355 15.9906C12.5523 16.275 12.5799 16.6144 12.8081 16.8769L14.3973 18.705C14.5956 18.9331 14.9201 19.0693 15.2656 19.0693C15.611 19.0693 15.9355 18.9331 16.1338 18.705L17.7231 16.8769C17.951 16.6147 17.9788 16.2751 17.796 15.9909C17.6124 15.7064 17.2521 15.53 16.8548 15.53H16.8547ZM17.3267 16.6526L15.7374 18.4807C15.6279 18.6067 15.4559 18.6787 15.2653 18.6787C15.0747 18.6787 14.9025 18.6067 14.7932 18.4807L13.2041 16.6526C13.0783 16.5079 13.0636 16.3277 13.1645 16.171C13.2655 16.0141 13.4569 15.9206 13.6758 15.9206H16.8541C17.0733 15.9206 17.2645 16.0141 17.3658 16.171C17.4673 16.3277 17.4525 16.5076 17.3266 16.6526H17.3267Z" fill="#1D1D1B"/>
<path d="M26.4745 7.17749L26.4298 7.12449C25.3 5.79371 23.4326 4.99976 21.4335 4.99976H21.4271L19.73 5.00129C19.727 5.00129 19.7243 4.99976 19.7211 4.99976H10.8109C10.7883 4.99976 10.7662 5.00083 10.7435 5.00114L9.14397 4.99976H9.1375C7.13823 4.99976 5.27078 5.79403 4.14176 7.12449L4.09662 7.17749C2.93474 8.54653 2.67859 10.2847 3.41218 11.8267L4.26594 13.6218C4.80681 14.759 4.99646 15.9991 4.81422 17.2085C4.80241 17.2882 4.85193 17.3658 4.93953 17.4039C4.97553 17.4197 5.01514 17.4273 5.05475 17.4273C5.11074 17.4273 5.16635 17.4116 5.21091 17.3812C6.28026 16.6527 7.00162 15.8869 7.48725 15.0587L8.49336 17.6517C9.3816 19.9405 11.9754 21.4783 14.9483 21.4783H15.7504C18.7232 21.4783 21.3902 19.8725 22.2356 17.5731L23.1308 15.1375C23.6161 15.9359 24.3261 16.6757 25.3617 17.3815C25.4064 17.4119 25.4618 17.4276 25.5178 17.4276C25.5574 17.4276 25.5967 17.4199 25.633 17.4042C25.7205 17.3661 25.7702 17.2885 25.7584 17.2088C25.5759 15.9999 25.7654 14.7596 26.3062 13.6221L27.16 11.827C27.8924 10.2844 27.6367 8.54618 26.4748 7.17741L26.4745 7.17749ZM5.34879 16.7579C5.42744 15.6456 5.21205 14.5229 4.71709 13.482L3.86333 11.6869C3.18707 10.2647 3.42322 8.66142 4.49502 7.39798L4.54016 7.34512C5.57958 6.1205 7.29739 5.38999 9.13704 5.38999H9.14333L10.4652 5.39106C9.56972 6.06121 7.91953 7.72058 7.91953 10.8446C7.91934 13.6734 7.21339 15.3333 5.34877 16.7579L5.34879 16.7579ZM21.7703 17.462C20.9857 19.5969 18.5098 21.0878 15.7493 21.0878H14.9472C12.1873 21.0878 9.77884 19.6599 8.95394 17.535L7.77645 14.5C8.26303 13.4135 8.40356 12.2147 8.40356 10.8446C8.40356 7.1666 10.8492 5.60975 11.2301 5.39029H19.3407C19.7204 5.60768 22.1673 7.15291 22.1673 10.8446C22.1673 12.2476 22.316 13.4702 22.8313 14.5769L21.7703 17.462ZM26.7066 11.6868L25.8528 13.4818C25.3579 14.5232 25.1425 15.646 25.2211 16.7578C23.3567 15.3334 22.6507 13.6736 22.6507 10.8445C22.6507 7.72064 21.0005 6.06154 20.1051 5.39096L21.4269 5.38989H21.433C23.2723 5.38989 24.9907 6.12072 26.0299 7.34455L26.0746 7.39756C27.1468 8.66088 27.383 10.2642 26.7065 11.6865L26.7066 11.6868Z" fill="#1D1D1B"/>
<path d="M1 0.5L27.5 26" stroke="black"/>
</svg>
