<svg width="30" height="27" viewBox="0 0 30 27" fill="none" xmlns="http://www.w3.org/2000/svg">
<path d="M7.46191 3.56724C7.46191 3.68127 7.52449 3.78657 7.62434 3.8413L8.20169 4.157C8.72495 4.44326 9.15315 4.87125 9.43943 5.39474L9.75512 5.97208C9.81007 6.07237 9.91515 6.13494 10.0292 6.13494C10.1436 6.13494 10.2485 6.07281 10.3032 5.97208L10.6189 5.39474C10.9052 4.87126 11.3334 4.44327 11.8567 4.157L12.434 3.8413C12.5341 3.78658 12.5964 3.68127 12.5964 3.56724C12.5964 3.45321 12.5339 3.34791 12.434 3.29318L11.8567 2.97749C11.3334 2.69122 10.9052 2.26323 10.6189 1.73975L10.3032 1.1624C10.2485 1.06189 10.1436 0.999756 10.0292 0.999756C9.91515 0.999756 9.80985 1.06189 9.75512 1.16262L9.43943 1.73996C9.15316 2.26344 8.72495 2.69143 8.20169 2.9777L7.62434 3.2934C7.52405 3.34769 7.46191 3.453 7.46191 3.56724V3.56724ZM8.50146 3.5256C9.12981 3.18199 9.64392 2.66835 9.98773 2.03932L10.0294 1.96366L10.0706 2.03932C10.4144 2.66812 10.9285 3.18201 11.5569 3.5256L11.6325 3.56724L11.5569 3.60888C10.9285 3.95249 10.4144 4.46614 10.0706 5.09516L10.0294 5.17082L9.98773 5.09516C9.64391 4.46636 9.12981 3.95248 8.50146 3.60888L8.4258 3.56724L8.50146 3.5256Z" fill="black"/>
<path d="M29.8253 3.87442L29.0988 3.47725C28.4264 3.10951 27.877 2.55978 27.5094 1.88811L27.1122 1.16221C27.002 0.961228 26.6737 0.961228 26.5636 1.16221L26.1664 1.88811C25.7988 2.55972 25.2493 3.1095 24.5769 3.47725L23.8509 3.87442C23.7506 3.92914 23.6885 4.03443 23.6885 4.14843C23.6885 4.26244 23.751 4.36773 23.8513 4.42244L24.5774 4.81961C25.2493 5.18735 25.7992 5.73693 26.1668 6.40875L26.564 7.1351C26.6188 7.23538 26.7241 7.29794 26.8381 7.29794C26.9521 7.29794 27.0574 7.23581 27.1122 7.1351L27.5094 6.40875C27.877 5.73693 28.4269 5.18736 29.0984 4.81961L29.8249 4.42244C29.9251 4.36773 29.9877 4.26244 29.9877 4.14843C29.9877 4.03443 29.9256 3.92914 29.8253 3.87442H29.8253ZM28.7988 4.27159C28.0218 4.69623 27.386 5.33188 26.9609 6.10923L26.8377 6.33419L26.7145 6.10923C26.2893 5.3321 25.6536 4.69649 24.8765 4.27159L24.6517 4.14843L24.8767 4.02506C25.654 3.59998 26.2895 2.96433 26.7147 2.18742L26.8379 1.96268L26.9611 2.18742C27.3862 2.96433 28.0215 3.59994 28.799 4.02506L29.024 4.14843L28.7988 4.27159Z" fill="black"/>
<path d="M25.3057 19.4086C25.3057 20.3372 26.0596 21.0927 26.9862 21.0927C27.913 21.0927 28.6671 20.3372 28.6671 19.4086C28.6671 18.4801 27.913 17.7246 26.9862 17.7246C26.0595 17.7246 25.3057 18.4803 25.3057 19.4086ZM28.0425 19.4086C28.0425 19.9925 27.569 20.4676 26.9866 20.4676C26.4047 20.4676 25.9312 19.9925 25.9312 19.4086C25.9312 18.8248 26.4047 18.3497 26.9866 18.3497C27.5688 18.3501 28.0425 18.8247 28.0425 19.4086Z" fill="black"/>
<path d="M19.9572 2.68378C19.9572 1.7552 19.203 0.999756 18.2762 0.999756C17.3494 0.999756 16.5957 1.7552 16.5957 2.68378C16.5957 3.61237 17.3496 4.36781 18.2762 4.36781C19.2028 4.36781 19.9572 3.61214 19.9572 2.68378ZM18.2762 3.74253C17.6943 3.74253 17.2208 3.26745 17.2208 2.68356C17.2205 2.09969 17.6941 1.62482 18.2762 1.62482C18.8586 1.62482 19.3321 2.09989 19.3321 2.68378C19.3319 3.26766 18.8583 3.74253 18.2762 3.74253Z" fill="black"/>
<path d="M25.618 14.1351C26.5448 14.1351 27.2985 13.3797 27.2985 12.4511C27.2985 11.5225 26.5446 10.7671 25.618 10.7671C24.6912 10.7671 23.9375 11.5225 23.9375 12.4511C23.9373 13.3797 24.6912 14.1351 25.618 14.1351ZM25.618 11.3924C26.1999 11.3924 26.6735 11.8675 26.6735 12.4513C26.6735 13.0352 26.1999 13.5103 25.618 13.5103C25.0361 13.5103 24.5626 13.0352 24.5626 12.4513C24.5626 11.8675 25.0361 11.3924 25.618 11.3924Z" fill="black"/>
<path d="M5.092 25.9085C5.15152 25.968 5.23153 25.9998 5.31264 25.9998C5.35363 25.9998 5.39505 25.992 5.43451 25.9752L24.0971 18.0862C24.1928 18.0458 24.2622 17.9606 24.2822 17.8584C24.3023 17.7561 24.27 17.6513 24.197 17.5778L13.4064 6.76463C13.3329 6.69052 13.2276 6.65803 13.1252 6.67874C13.0229 6.69836 12.9372 6.76812 12.8969 6.86446L5.02429 25.5661C4.97523 25.6834 5.00183 25.8188 5.09188 25.9086L5.092 25.9085ZM13.2928 7.53551L23.427 17.6908L5.89907 25.0999L13.2928 7.53551Z" fill="black"/>
<path d="M19.6444 9.75772C19.7407 9.75772 19.8354 9.71325 19.8966 9.62998C19.9954 9.49504 22.3058 6.27279 21.67 1.27329C21.6482 1.10195 21.4906 0.983588 21.3205 1.00277C21.1491 1.02435 21.0279 1.18086 21.0499 1.3522C21.6528 6.09405 19.415 9.23065 19.3921 9.26134C19.2905 9.40063 19.3208 9.59594 19.4603 9.69753C19.5159 9.73829 19.5802 9.75769 19.6443 9.75769L19.6444 9.75772Z" fill="black"/>
<path d="M29.7938 9.75898C25.0991 7.88552 21.4256 10.7521 21.271 10.8748C21.136 10.9823 21.114 11.1792 21.2215 11.3139C21.2834 11.3911 21.3743 11.4314 21.4659 11.4314C21.5343 11.4314 21.603 11.4092 21.6606 11.363C21.6952 11.3351 25.2009 8.59844 29.5616 10.3393C29.7225 10.4037 29.9039 10.325 29.9676 10.1649C30.0321 10.0047 29.9541 9.82306 29.7936 9.75896L29.7938 9.75898Z" fill="black"/>
<path d="M15.3653 7.408C15.3888 7.41367 15.4122 7.41606 15.4357 7.41606C15.5779 7.41606 15.7063 7.31861 15.7398 7.17384C15.7695 7.04434 16.4471 3.97959 14.3539 2.12594C14.2244 2.01213 14.0268 2.02413 13.9126 2.15276C13.7981 2.28226 13.8101 2.4798 13.9392 2.59404C15.7514 4.1987 15.137 7.00554 15.1303 7.03367C15.0921 7.20199 15.1972 7.36943 15.3653 7.40802L15.3653 7.408Z" fill="black"/>
<path d="M29.4329 17.0324C29.4939 17.1181 29.5901 17.1641 29.6879 17.1641C29.7505 17.1641 29.8135 17.1453 29.8687 17.1063C30.0093 17.0066 30.0425 16.8113 29.9424 16.6702C28.1999 14.2155 24.4695 15.3274 24.3118 15.3754C24.1468 15.426 24.0539 15.601 24.1047 15.7661C24.1557 15.9309 24.331 16.0236 24.4954 15.973C24.5301 15.9627 27.9489 14.9417 29.433 17.0324L29.4329 17.0324Z" fill="black"/>
<path d="M0.5 0.5L28 26.5" stroke="black"/>
</svg>
