<svg width="34" height="28" viewBox="0 0 34 28" fill="none" xmlns="http://www.w3.org/2000/svg">
<path d="M1.70242 12.7284C1.47951 12.9078 1.47906 13.1974 1.70172 13.3774C1.92424 13.5573 2.2832 13.5579 2.50625 13.3783C10.7819 6.71685 24.234 6.73133 32.4953 13.4106C32.7179 13.5905 33.0768 13.591 33.2999 13.4115C33.5228 13.232 33.5232 12.9425 33.3006 12.7624C24.5999 5.72494 10.4222 5.70969 1.70271 12.7284L1.70242 12.7284Z" fill="#1D1D1B"/>
<path d="M6.28054 16.4306C6.05764 16.61 6.05718 16.8996 6.27985 17.0796C6.50236 17.2595 6.86132 17.26 7.08438 17.0805C12.8294 12.456 22.1727 12.4661 27.9078 17.1029C28.1303 17.2828 28.4892 17.2833 28.7123 17.1037C28.9352 16.9243 28.9357 16.6347 28.713 16.4547C22.5367 11.4582 12.4716 11.4474 6.28084 16.4306L6.28054 16.4306Z" fill="#1D1D1B"/>
<path d="M10.8606 20.1344C10.6377 20.3138 10.6373 20.6034 10.8599 20.7834C11.0824 20.9634 11.4414 20.9639 11.6645 20.7843C14.8806 18.1955 20.1114 18.201 23.3221 20.7969C23.5447 20.9768 23.9036 20.9773 24.1267 20.7977C24.3496 20.6183 24.35 20.3287 24.1274 20.1487C20.471 17.193 14.5229 17.1867 10.8609 20.1344L10.8606 20.1344Z" fill="#1D1D1B"/>
<path d="M16.5974 22.2242C17.787 21.8281 19.1497 22.2851 19.6413 23.245C20.1329 24.2049 19.5669 25.3041 18.3773 25.7001C17.1877 26.0963 15.8247 25.6393 15.3333 24.6795C14.8417 23.7196 15.4077 22.6203 16.5974 22.2242Z" fill="#1D1D1B"/>
<path d="M1 2.00024L27.5 27.5002" stroke="black"/>
</svg>
