<svg width="23" height="25" viewBox="0 0 23 25" fill="none" xmlns="http://www.w3.org/2000/svg">
<path d="M22.9269 11.9566V11.7777C22.9269 10.5657 21.7049 9.57983 20.2024 9.57983H8.45515C7.83306 9.57983 7.26606 9.75563 6.80706 10.0394V2.8938C7.3192 2.82762 7.71364 2.4712 7.71364 2.03912V0.868489C7.71364 0.389566 7.23043 -0.000244141 6.63677 -0.000244141H1.07687C0.483204 -0.000244141 0 0.389571 0 0.868489V2.03912C0 2.47118 0.393702 2.82722 0.906575 2.8938V12.4081H0.920039C0.933503 12.5018 0.96093 12.5946 1.01678 12.6817L5.46763 19.5518L3.23084 22.8765C3.06653 23.1207 3.07401 23.4091 3.24979 23.6479C3.42632 23.8866 3.73749 24.029 4.0813 24.029H16.0417C16.3507 24.029 16.6331 23.9146 16.8174 23.715C17.0016 23.5155 17.057 23.2641 16.9687 23.0247L16.4062 21.5073C16.208 20.971 16.2738 20.402 16.591 19.9052C17.0914 19.1221 17.908 18.4612 18.9524 17.9929C23.2754 16.0569 22.963 12.288 22.9263 11.9569L22.9269 11.9566ZM8.4554 10.448H20.2026C21.0102 10.448 21.6837 10.9193 21.824 11.5388L6.83362 11.539C6.97324 10.9195 7.64745 10.4482 8.45553 10.4482L8.4554 10.448ZM1.9837 2.90687H5.7307V11.5386H1.9837V2.90687ZM1.07713 0.86766H6.63702V2.03829H1.07713V0.86766ZM18.4305 17.2331C17.1996 17.7846 16.2329 18.5708 15.6347 19.5066C15.1889 20.2041 15.0964 21.0025 15.3749 21.7554L15.8955 23.1597H4.26446L6.39855 19.9891H10.8477C11.1454 19.9891 11.386 19.7944 11.386 19.5548C11.386 19.3151 11.1454 19.1206 10.8477 19.1206H6.4048L2.05563 12.407L21.8761 12.4068C21.8793 13.3588 21.5671 15.8274 18.4305 17.2328L18.4305 17.2331Z" fill="#1D1D1B"/>
</svg>
