<svg width="33" height="27" viewBox="0 0 33 27" fill="none" xmlns="http://www.w3.org/2000/svg">
<path d="M0.70242 12.7282C0.479514 12.9076 0.479055 13.1972 0.701721 13.3772C0.924239 13.5571 1.2832 13.5576 1.50625 13.3781C9.78195 6.7166 23.234 6.73109 31.4953 13.4104C31.7179 13.5903 32.0768 13.5908 32.2999 13.4112C32.5228 13.2318 32.5232 12.9422 32.3006 12.7622C23.5999 5.7247 9.42224 5.70945 0.702715 12.7282L0.70242 12.7282Z" fill="#1D1D1B"/>
<path d="M5.28054 16.4303C5.05764 16.6097 5.05718 16.8993 5.27985 17.0793C5.50236 17.2592 5.86132 17.2598 6.08438 17.0802C11.8294 12.4558 21.1727 12.4658 26.9078 17.1026C27.1303 17.2825 27.4892 17.283 27.7123 17.1035C27.9352 16.9241 27.9357 16.6345 27.713 16.4545C21.5367 11.4579 11.4716 11.4471 5.28084 16.4303L5.28054 16.4303Z" fill="#1D1D1B"/>
<path d="M9.86062 20.1342C9.63772 20.3136 9.63726 20.6032 9.85992 20.7832C10.0824 20.9631 10.4414 20.9636 10.6645 20.7841C13.8806 18.1953 19.1114 18.2007 22.3221 20.7966C22.5447 20.9765 22.9036 20.977 23.1267 20.7975C23.3496 20.6181 23.35 20.3285 23.1274 20.1485C19.471 17.1928 13.5229 17.1865 9.86092 20.1342L9.86062 20.1342Z" fill="#1D1D1B"/>
<path d="M15.5974 22.224C16.787 21.8279 18.1497 22.2849 18.6413 23.2448C19.1329 24.2047 18.5669 25.3039 17.3773 25.6999C16.1877 26.096 14.8247 25.639 14.3333 24.6792C13.8417 23.7193 14.4077 22.6201 15.5974 22.224Z" fill="#1D1D1B"/>
</svg>
